M48
;Layer_Color=9474304
;FILE_FORMAT=4:4
METRIC,LZ
;TYPE=PLATED
T1F00S00C0.3000
T2F00S00C1.2000
T3F00S00C1.8000
T4F00S00C4.0000
%
T01
X-00802Y00028
X-00789
X-007735Y000255
X-00745Y00032
Y00038
Y00044
Y00064
Y0007
Y00076
X-007475Y00095
X-00735
X-00725
X-00702Y00092
X-00698Y00076
Y0007
Y00064
X-00697Y00044
Y00038
Y00032
X-00645Y00031
X-00638Y00024
X-0062
X-00628Y00048
X-00638Y00051
X-0065Y00058
X-00649999Y00064001
Y00070001
X-00638Y00098
X-00624Y00091
X-0061Y00098
X-006035Y00111997
Y00117997
Y00123997
X-00605Y00145
X-00578Y00146
Y00138
Y0013
Y00122
X-0057
X-00562
Y0013
X-0057
Y00138
X-00562
Y00146
X-0057
X-00554
X-00546
Y00138
X-00554
Y0013
X-00546
Y00122
X-00554
X-00538
Y0013
Y00138
Y00146
X-0053
X-00522
Y00138
X-0053
Y0013
X-00522
Y00122
X-0053
Y00095
X-00536Y00089
X-00545Y000875
X-005425Y000965
X-00555Y0009
X-005675
X-005775Y000925
X-00581Y00062
X-00601999Y00064001
Y00070001
Y00076001
X-00545Y00076
Y0007
Y00064
X-00543Y00051
X-00555Y00052
X-00568
Y00025
X-00555
X-00543
X-00533
X-00581
X-00489Y00035
X-00478
X-00467
X-0047Y0009
X-00477Y00096
X-00484Y0009
X-00498001Y00075999
Y00069999
Y00064
X-004965Y00112002
Y00118002
Y00124002
X-00495Y00145
X-00650001Y00144
Y00123999
Y00117999
Y00111999
X-00669Y00099
X-00683
X-00696501Y00112
Y00118
Y00124
X-00722Y00122
Y0013
Y00138
Y00146
X-0073
Y00138
X-00738
Y00146
X-00746
Y00138
X-00754
Y00146
X-00762
Y00138
Y0013
Y00122
X-00754
X-00746
Y0013
X-00754
X-00738
X-0073
Y00122
X-00738
X-0077
Y0013
X-00778
Y00122
Y00138
X-0077
Y00146
X-00778
X-00803Y00116
Y0011
Y00104
X-00809002Y00089999
X-00837Y0009
X-00844Y00072
X-00851Y00104
Y0011
Y00116
Y00144
X-00770002Y00089999
X-0045Y00098
X-00437
X-00449999Y00112
Y00118
Y00124
Y00144001
X-00403499Y00124001
Y00118001
Y00112001
X-00409001Y00095999
X-00402Y00076
Y0007
Y00064
X-0045Y00065
Y00059
Y00053
X-00354Y0004
X-00344Y00064
Y0007
Y00076
X-003475Y00095
X-00335
X-00325
X-00322Y00122
Y0013
Y00138
Y00146
X-0033
Y00138
X-00338
Y00146
X-00346
Y00138
X-00354
Y00146
X-00362
Y00138
Y0013
Y00122
X-00354
X-00346
Y0013
X-00354
X-00338
X-0033
Y00122
X-00338
X-0037
Y0013
X-00378
Y00122
Y00138
X-0037
Y00146
X-00378
X-0037Y00094
X-00298Y00076
Y0007
Y00064
X-0025
Y00058
Y0007
X-00238Y00098
X-00224Y00091
X-0021Y00098
X-00202999Y00112001
Y00118001
Y00124001
X-00205Y00145
X-00178Y00146
Y00138
Y0013
Y00122
X-0017
X-00162
Y0013
X-0017
Y00138
X-00162
Y00146
X-0017
X-00154
X-00146
Y00138
X-00154
Y0013
X-00146
Y00122
X-00154
X-00138
Y0013
Y00138
Y00146
X-0013
X-00122
Y00138
X-0013
Y0013
X-00122
Y00122
X-0013
Y00095
X-00136Y00089
X-00145Y000875
X-001425Y000965
X-00155Y0009
X-001675
X-001775Y000925
X-00202Y00076
Y0007
Y00064
X-00171Y00052
Y00022
X-00145Y00064
Y0007
Y00076
X-00097Y00076
Y0007
Y00064
X-0009Y00084
X-00084Y0009
X-00077Y00085
X-0007Y0009
X-00097Y00104
Y0011
Y00116
X-00095Y00145
X-00077Y0013
X-00083Y00036
X-00114
X-00249999Y00112
Y00118
Y00124
Y00144001
X-00269Y00099
X-00283
X-00296501Y00112004
Y00118004
Y00124004
X-00049Y00116
Y0011
Y00104
X-00056Y0009
X-00049Y00144
Y0015
Y00156
Y00184
Y0019
Y00196
Y00224
Y0023
Y00236
X-00043Y00244
X-00047Y00252
X-00049Y00264
Y0027
Y00276
X-00056Y0029
X-00049Y00304
Y0031
Y00316
Y00344
Y0035
Y00356
Y00384
Y0039
Y00396
Y00424
Y0043
Y00436
X-00049Y0045
X-00042Y00457
X-00049Y00464
Y0047
Y00476
X-00056Y0049
X-00049Y00504
Y0051
Y00516
X-00077Y0053
X-00097Y00516
Y0051
Y00504
X-00084Y0049
X-0007
X-00097Y00476
Y0047
Y00464
X-00097Y00436
Y0043
Y00424
X-00090999Y00410001
X-00097Y00396
Y0039
Y00384
X-00122Y00378
X-0013
Y0037
X-00122
Y00362
X-0013
Y00354
X-00122
Y00346
X-0013
X-00138
X-00146
X-00154
X-00162
X-0017
X-00178
Y00354
Y00362
Y0037
Y00378
X-0017
Y0037
X-00162
Y00378
X-00154
Y0037
X-00146
Y00378
X-00138
Y0037
Y00362
Y00354
X-00146
X-00154
Y00362
X-00146
X-00162
X-0017
Y00354
X-00162
Y00338
X-0017
Y0033
X-00162
Y00322
X-0017
X-00178
Y0033
Y00338
X-00154
Y0033
X-00146
Y00338
X-00138
Y0033
Y00322
X-00146
X-00154
X-0013
X-00122
Y0033
X-0013
Y00338
X-00122
X-00095Y00345
X-00097Y00316
Y0031
Y00304
X-00084Y0029
X-0007
X-00097Y00276
Y0027
Y00264
X-00097Y00236
Y0023
Y00224
X-00090999Y0020875
X-00097Y00196
Y0019
Y00184
X-00122Y00178
X-0013
Y0017
X-00122
Y00162
X-0013
Y00154
X-00122
X-00138
Y00162
X-00146
X-00154
Y00154
X-00146
X-00162
X-0017
Y00162
X-00162
Y0017
X-0017
Y00178
X-00162
X-00154
Y0017
X-00146
Y00178
X-00138
Y0017
X-00178
Y00178
Y00162
Y00154
X-00202999Y00176001
Y00182001
Y00188001
X-00198Y00208
X-00217Y00201
X-00231
X-00249999Y00188001
Y00182001
Y00176001
Y00156001
Y00150001
X-00295Y00155
X-00296501Y00176004
Y00182004
Y00188004
X-0029Y00202
X-00276Y00209
X-00262
X-003225Y002075
X-003325Y0021
X-00345
X-00355Y002125
X-00364Y00211
X-0037Y00205
X-003575Y002035
X-00355Y00224
Y0023
Y00236
X-00319Y00238
X-00344Y00264
Y0027
Y00276
X-003475Y00295
X-00335
X-00325
X-00322Y00322
Y0033
Y00338
Y00346
Y00354
Y00362
Y0037
Y00378
X-0033
X-00338
Y0037
X-0033
Y00362
X-00338
Y00354
X-0033
Y00346
Y00338
X-00338
Y00346
X-00346
Y00338
X-00354
Y00346
Y00354
X-00346
Y00362
Y0037
X-00354
Y00362
X-00362
Y0037
Y00378
X-00354
X-00346
X-0037
X-00378
Y0037
X-0037
Y00362
X-00378
Y00354
X-0037
X-00362
Y00346
Y00338
Y0033
Y00322
X-00354
X-00346
Y0033
X-00354
X-00338
X-0033
Y00322
X-00338
X-0037
Y0033
X-00378
Y00322
Y00338
X-0037
Y00346
X-00378
X-00405Y00355
X-004035Y00376
X-00403499Y00382001
Y00388001
X-00416Y0041
X-00423Y00404
X-0043Y0041
X-00444
X-0045Y00424
Y0043
Y00436
X-00456Y0045
X-0045Y00464
Y0047
Y00476
X-00456Y0049
X-00437
X-00409001Y00495999
X-004035Y00512
Y00518
Y00524
X-00378Y00522
X-0037
Y0053
X-00378
Y00538
X-0037
X-00362
X-00354
X-00346
X-00338
X-0033
X-00322
Y0053
Y00522
X-0033
Y0053
X-00338
Y00522
X-00346
Y0053
X-00354
Y00522
X-00362
Y0053
X-0037Y00494
X-003475Y00495
X-00335
X-00325
X-00344Y00476
Y0047
Y00464
X-00355Y00436501
Y00430501
Y00424501
X-00355Y004125
X-00364Y00411
X-0037Y00405
X-003575Y004035
X-00345Y0041
X-003325
X-003225Y004075
X-003175Y004375
X-002965Y00436
Y0043
Y00424
X-0029Y00402
X-002965Y00388
Y00382
Y00376
X-00295Y00355
X-002965Y00324
Y00318
Y00312
X-00283Y00299
X-00269
X-0025Y00312
Y00318
Y00324
Y00344
Y0035
Y00356
Y00376
Y00382
Y00388
X-00231Y00401
X-00217
X-0021Y00408
X-00203Y00424
Y0043
Y00436
X-00201501Y00464
Y0047
Y00476
X-0021Y00498
X-00224Y00491
X-00238
X-00249501Y00475999
Y0047
Y00463999
X-0025Y00436
Y0043
Y00424
X-00262Y00409
X-00276
X-002965Y00464
Y0047
Y00476
X-00296501Y00511999
Y00517999
Y00523999
X-00283Y00499
X-00269
X-0025Y00512
Y00518
Y00524
X-00203Y00524
Y00518
Y00512
X-00178Y00522
Y0053
Y00538
X-0017
Y0053
X-00162
Y00538
X-00154
Y0053
X-00146
Y00538
X-00138
Y0053
Y00522
X-00146
X-00154
X-00162
X-0017
X-001675Y0049
X-00155
X-00145Y004875
X-00136Y00489
X-0013Y00495
X-001425Y004965
X-00145Y00476
Y0047
Y00464
X-00131Y00451
X-00123Y00443
X-00156Y004365
Y004305
Y004245
X-001525Y00405
X-00165
X-00175
X-00203Y00388
Y00382
Y00376
X-00205Y00345
X-00203Y00324
Y00318
Y00312
X-0021Y00298
X-00224Y00291
X-00238
X-001775Y002925
X-001675Y0029
X-00155
X-00145Y002875
X-00136Y00289
X-0013Y00295
X-001425Y002965
X-00145Y00276
Y0027
Y00264
X-00127Y00252
Y00244
X-00156Y00237
Y00231
Y00225
X-001525Y00205
X-00165
X-00175
X-00176Y00252
X-00129999Y0020875
X-00063Y0021
X-00077Y0033
X-00063Y0041
X-0013Y0041
X-00179Y00452
X-001775Y004925
X-0013Y00522
X-00122
Y0053
X-0013
Y00538
X-00122
X-00449999Y00523997
Y00517997
Y00511997
X-004035Y00476
Y0047
Y00464
X-00403Y00436
Y0043
Y00424
X-00449999Y00388001
Y00382001
Y00376001
Y00356001
Y00350001
Y00344001
Y00324
Y00318
Y00312
X-00456Y0029
X-00437
X-00449999Y00276
Y0027
Y00264
X-00456Y0025
X-00449999Y00236
Y0023
Y00224
X-00444Y0021
X-0043
X-00423Y00205
X-00416Y0021
X-004025Y00224
Y0023
Y00236
X-00403499Y00264
Y0027
Y00276
X-00409001Y00296
X-00403499Y00312001
Y00318001
Y00324001
X-0037Y00294
X-0037Y00178
X-00378
Y0017
X-0037
Y00162
X-00378
Y00154
X-0037
X-00362
X-00354
X-00346
X-00338
X-0033
X-00322
Y00162
Y0017
Y00178
X-0033
X-00338
Y0017
X-0033
Y00162
X-00338
X-00346
Y0017
X-00354
Y00162
X-00362
Y0017
Y00178
X-00354
X-00346
X-00403499Y00176001
Y00182001
Y00188001
X-00405Y00155
X-00449999Y00156001
Y00150001
Y00176001
Y00182001
Y00188001
X-00463Y0021
X-00490998Y00207001
X-00496501Y00224
Y0023
Y00236
X-00495001Y00264
Y0027
Y00276
X-00484Y0029
X-00477Y00296
X-0047Y0029
X-00496999Y00312003
Y00318003
X-00497Y00324
X-00495Y00345
X-00522Y00346
X-0053
X-00538
X-00546
X-00554
X-00562
X-0057
X-00578
Y00354
Y00362
Y0037
Y00378
X-0057
Y0037
X-00562
Y00378
X-00554
Y0037
X-00546
Y00378
X-00538
Y0037
Y00362
Y00354
X-00546
X-00554
Y00362
X-00546
X-00562
X-0057
Y00354
X-00562
Y00338
X-0057
Y0033
X-00562
Y00322
X-0057
X-00578
Y0033
Y00338
X-00554
Y0033
X-00546
Y00338
X-00538
Y0033
Y00322
X-00546
X-00554
X-0053
X-00522
Y0033
X-0053
Y00338
X-00522
Y00354
X-0053
Y00362
X-00522
Y0037
X-0053
Y00378
X-00522
X-00496999Y00376003
Y00382003
Y00388003
X-00490998Y00406001
X-00497001Y00423999
Y0043
Y00435999
Y00463999
Y0047
Y00475999
X-00484Y0049
X-00477Y00496
X-0047Y0049
X-00497Y00511995
Y00517994
Y00523994
X-00522Y00522
X-0053
X-00538
X-00546
X-00554
X-00562
X-0057
X-00578
Y0053
Y00538
X-0057
Y0053
X-00562
Y00538
X-00554
Y0053
X-00546
Y00538
X-00538
Y0053
X-0053
Y00538
X-00522
Y0053
X-0053Y00495
X-00536Y00489
X-00545Y004875
X-005425Y004965
X-00555Y0049
X-005675
X-005775Y004925
X-0061Y00498
X-006035Y00512
Y00518
Y00524
X-0065Y00524
Y00518
Y00512
X-00669Y00499
X-00683
X-00702Y00492
X-006965Y00476
Y0047
Y00464
Y00436
Y0043
Y00424
X-0069Y00402
X-00696499Y00388001
Y00382001
Y00376001
X-00695Y00355
X-00722Y00354
Y00346
Y00338
Y0033
Y00322
X-0073
Y0033
X-00738
Y00322
X-00746
Y0033
X-00754
Y00322
X-00762
Y0033
Y00338
Y00346
X-00754
X-00746
Y00338
X-00754
X-00738
X-0073
Y00346
X-00738
Y00354
X-0073
Y00362
Y0037
X-00738
Y00362
X-00746
Y0037
X-00754
Y00362
Y00354
X-00746
X-00762
Y00362
Y0037
Y00378
X-00754
X-00746
X-00738
X-0073
X-00722
Y0037
Y00362
X-007225Y004075
X-007325Y0041
X-00745
X-00755Y004125
X-00764Y00411
X-0077Y00405
X-007575Y00404
X-00755Y00424
Y0043
Y00436
X-00719Y00437
X-00744Y00464
Y0047
Y00476
X-007475Y00495
X-00735
X-00725
X-00722Y00522
Y0053
Y00538
X-0073
X-00738
Y0053
X-0073
Y00522
X-00738
X-00746
Y0053
X-00754
Y00522
X-00762
Y0053
Y00538
X-00754
X-00746
X-0077
X-00778
Y0053
X-0077
Y00522
X-00778
X-00803Y00516
Y0051
Y00504
X-00809002Y00489999
X-00803Y00476
Y0047
Y00464
Y00436
Y0043
Y00424
X-00816Y0041
X-0083
X-00844
X-00850999Y00423001
Y00429001
Y00435001
X-00851Y0045
Y00464
Y0047
Y00476
X-00837Y0049
X-00851Y00504
Y0051
Y00516
X-00770002Y00489999
X-006965Y00512
Y00518
Y00524
X-00638Y00491
X-00624
X-006035Y00476
Y0047
Y00464
X-00603Y00436
Y0043
Y00424
X-00603498Y00388001
Y00382001
Y00376001
X-00605Y00345
X-00603498Y00324001
Y00318001
Y00312001
X-0061Y00298
X-00624Y00291
X-00638
X-00649998Y00311998
Y00317997
Y00323997
Y00343998
Y00349998
Y00355998
Y00375998
Y00381998
Y00387998
X-00631Y00401
X-00617
X-00575Y00405
X-00565
X-005525
X-00556Y00424
Y0043
Y00436
X-00571Y0045
X-00545Y00464
Y0047
Y00476
X-00529998Y00406001
X-00463Y0041
X-0053Y00295
X-00536Y00289
X-00545Y002875
X-005425Y002965
X-00555Y0029
X-005675
X-005775Y002925
X-00571Y00251
X-00556Y00236
Y0023
Y00224
X-005525Y00205
X-00565
X-00575
X-00578Y00178
Y0017
Y00162
Y00154
X-0057
Y00162
X-00562
Y00154
X-00554
Y00162
X-00546
Y00154
X-00538
Y00162
Y0017
Y00178
X-00546
X-00554
Y0017
X-00546
X-00562
X-0057
Y00178
X-00562
X-0053
Y0017
X-00522
Y00178
Y00162
X-0053
Y00154
X-00522
X-004965Y00176002
Y00182002
Y00188002
X-00529998Y00207001
X-00545Y00264
Y0027
Y00276
X-006035Y00187997
Y00181997
Y00175997
X-00617Y00201
X-00631
X-00650001Y00188
Y00182
Y00176
Y00156
Y0015
X-00695Y00155
X-00696501Y00176
Y00182
Y00188
X-0069Y00202
X-00676Y00209
X-00662
X-007225Y002075
X-007325Y0021
X-00745
X-00755Y002125
X-00764Y00211
X-0077Y00205
X-007575Y002035
X-00755Y00224
Y0023
Y00236
X-00744Y00264
Y0027
Y00276
X-007475Y00295
X-00735
X-00725
X-00702Y00292
X-00696499Y00312001
Y00318001
Y00324001
X-00683Y00299
X-00669
X-00718Y00238
X-00722Y00178
Y0017
Y00162
Y00154
X-0073
X-00738
Y00162
X-0073
Y0017
X-00738
Y00178
X-0073
X-00746
X-00754
Y0017
X-00746
Y00162
X-00754
Y00154
X-00746
X-00762
Y00162
Y0017
Y00178
X-0077
X-00778
Y0017
X-0077
Y00162
X-00778
Y00154
X-0077
X-00805Y00155
X-00803Y00184
Y0019
Y00196
X-00816Y0021
X-0083
X-00844
X-00851Y00196
Y0019
Y00184
Y00156
Y0015
X-00823Y0017
X-00803Y00224
Y0023
Y00236
Y00264
Y0027
Y00276
X-00809002Y00289999
X-00803Y00304
Y0031
Y00316
X-00778Y00322
X-0077
Y0033
X-00778
Y00338
X-0077
Y00346
X-00778
Y00354
X-0077
Y00362
Y0037
X-00778
Y00362
Y00378
X-0077
X-00803Y00384
Y0039
Y00396
X-00805Y00355
X-00823Y0037
X-00851Y00384
Y0039
Y00396
Y00356
Y0035
Y00344
Y00316
Y0031
Y00304
X-00837Y0029
X-00851Y00276
Y0027
Y00264
X-0085Y0025
X-00851Y00236
Y0023
Y00224
X-00770002Y00289999
X-00676Y00409
X-00662
X-00651Y00424
Y0043
Y00436
X-0065Y00464
Y0047
Y00476
X-008825Y004405
X-00876Y00245
X-00888Y00647
X-00854
X-00856Y00808
X-00864Y00905
X-0087
Y00911
Y00917
X-00864
Y00911
Y00923
Y00929
X-0087
Y00923
Y00935
X-00864
X-00794Y009355
Y009295
X-00788
Y009355
Y009235
Y009175
X-00794
Y009235
Y009115
Y009055
X-00788
Y009115
X-00779Y00891
Y00885
Y00879
X-00792005Y00858999
Y00852999
Y00846999
X-00803Y00827
Y00821
Y00815
X-00816Y00802
X-0083
X-00844
X-00853Y008
X-00851Y00788
Y00782
Y00776
Y00756
Y0075
Y00744
Y00724
Y00718
Y00712
X-00837Y0069
X-00851Y00676
Y0067
Y00664
Y00636
Y0063
Y00624
X-00844Y0061
X-0083
X-00816
X-00803Y00596
Y0059
Y00584
X-00778Y00578
X-0077
X-00762
X-00754
X-00746
X-00738
X-0073
X-00722
Y0057
Y00562
Y00554
Y00546
X-0073
X-00738
Y00554
X-0073
Y00562
Y0057
X-00738
Y00562
X-00746
Y0057
X-00754
Y00562
Y00554
X-00746
Y00546
X-00754
X-00762
Y00554
Y00562
Y0057
X-0077
Y00562
X-00778
Y0057
Y00554
X-0077
Y00546
X-00778
X-00805Y00555
X-00823Y0057
X-00851Y00584
Y0059
Y00596
Y00556
Y0055
Y00544
X-00803Y00624
Y0063
Y00636
Y00664
Y0067
Y00676
X-00809001Y00695999
X-00803Y00712
Y00718
Y00724
X-00778Y00722
X-0077
Y0073
X-00778
Y00738
X-0077
Y00746
X-00778
Y00754
X-0077
X-00762
X-00754
X-00746
X-00738
X-0073
X-00722
Y00746
Y00738
Y0073
Y00722
X-0073
Y0073
X-00738
Y00722
X-00746
Y0073
X-00754
Y00722
X-00762
Y0073
Y00738
Y00746
X-00754
X-00746
Y00738
X-00754
X-00738
X-0073
Y00746
X-00738
Y00762
X-0073
Y0077
X-00738
Y00778
X-0073
X-00722
Y0077
Y00762
X-00746
Y0077
X-00754
Y00762
X-00762
Y0077
Y00778
X-00754
X-00746
X-0077
X-00778
Y0077
X-0077
Y00762
X-00778
X-00805Y00755
X-00803Y00777
Y00783
Y00789
X-0077Y00805
X-00764Y00811
X-00754Y008115
X-00745Y0081
X-007325
X-007225Y008075
X-0069Y00802
X-00676
X-00662
X-00649995Y00815001
Y00821001
Y00827001
X-0065Y00847
Y00853
Y00859
X-00644Y00878765
Y00884765
Y00890765
X-00653Y009055
Y009115
X-00659
Y009055
Y009175
Y009235
X-00653
Y009175
Y009295
Y009355
X-00659
Y009295
X-006Y00929
Y00923
X-00594
Y00929
Y00935
X-006
Y00917
Y00911
X-00594
Y00917
Y00905
X-006
X-00610005Y00891
Y00885
Y00879
X-00603Y00859
Y00853
Y00847
Y00827
Y00821
Y00815
X-00617Y00801
X-00631
X-0065Y00788
Y00782
Y00776
Y00756
Y0075
Y00744
Y00724
Y00718
Y00712
X-00669Y00699
X-00683
X-00696499Y00711997
Y00717997
Y00723997
X-00695Y00755
X-00696499Y00775997
Y00781997
Y00787997
X-00698Y00821
Y00827
Y00833
X-00698005Y00846999
Y00852999
Y00858999
X-00694Y00878765
Y00884765
Y00890765
X-00729Y00905
X-00735
Y00911
Y00917
X-00729
Y00911
Y00923
X-00735
Y00929
X-00729
Y00935
X-00735
X-00744999Y00891001
Y00885001
Y00879001
X-00745005Y00858999
Y00852999
Y00846999
X-00748Y00833
X-00774999Y00824999
X-007575Y008035
X-00851Y00815
Y00821
Y00827
X-00827Y00879
Y00885
Y00891
X-0077Y006945
X-007475Y00695
X-00735
X-00725
X-00744Y00676
Y0067
Y00664
X-00755Y00636
Y0063
Y00624
Y006125
X-00764Y00611
X-0077Y00605
X-007575Y006035
X-00745Y0061
X-007325
X-007225Y006075
X-00719Y00638
X-0069Y00602
X-006965Y00588
Y00582
Y00576
X-00695Y00555
X-0065Y00556
Y0055
Y00544
Y00576
Y00582
Y00588
X-00631Y00601
X-00617
X-006035Y00588
Y00582
Y00576
X-00578Y00578
Y0057
Y00562
Y00554
Y00546
X-0057
X-00562
Y00554
X-0057
Y00562
X-00562
Y0057
X-0057
Y00578
X-00562
X-00554
Y0057
X-00546
Y00578
X-00538
Y0057
Y00562
Y00554
X-00546
X-00554
Y00562
X-00546
Y00546
X-00554
X-00538
X-0053
X-00522
Y00554
X-0053
Y00562
X-00522
Y0057
X-0053
Y00578
X-00522
X-00497Y00575994
Y00581995
Y00587994
X-00490998Y00607001
X-00495001Y00623999
Y0063
Y00635999
Y00663999
Y00669999
Y00676
X-00484Y0069
X-00477Y00696
X-0047Y0069
X-00495Y00711995
Y00717995
Y00723995
X-00495Y00745
X-00522Y00746
X-0053
X-00538
X-00546
X-00554
X-00562
X-0057
X-00578
Y00754
Y00762
Y0077
Y00778
X-0057
Y0077
X-00562
Y00778
X-00554
Y0077
X-00546
Y00778
X-00538
Y0077
Y00762
Y00754
X-00546
X-00554
Y00762
X-00546
X-00562
X-0057
Y00754
X-00562
Y00738
X-0057
Y0073
X-00562
Y00722
X-0057
X-00578
Y0073
Y00738
X-00554
Y0073
X-00546
Y00738
X-00538
Y0073
Y00722
X-00546
X-00554
X-0053
X-00522
Y0073
X-0053
Y00738
X-00522
Y00754
X-0053
Y00762
X-00522
Y0077
X-0053
Y00778
X-00522
X-00495Y00775995
Y00781995
Y00787995
X-00490998Y00801001
X-00498Y00815
Y00821
Y00827
Y00847
Y00853
Y00859
X-00508Y00879001
Y00885001
Y00891001
X-00518Y009055
Y009115
X-00524
Y009055
Y009175
Y009235
X-00518
Y009175
Y009295
Y009355
X-00524
Y009295
X-00465Y00929
X-00459
Y00923
X-00465
Y00917
Y00911
X-00459
Y00917
Y00905
X-00465
X-00475Y00891
Y00885
Y00879
X-00465Y00935
X-00459
X-00463Y00801
X-0053Y00806
X-005525Y00805
X-00565
X-00575
X-00556Y00814
Y0082
Y00826
X-00556Y00847
Y00853
Y00859
X-00559005Y00879
Y00885
Y00891
X-00602Y00788
Y00782
Y00776
X-00605Y00745
X-00602Y00724
Y00718
Y00712
X-0061Y00698
X-00624Y00691
X-00638
X-005775Y006925
X-005675Y0069
X-00555
X-00546Y00687
X-00536Y00689
X-0053Y00695
X-005425Y006965
X-00545Y00676
Y0067
Y00664
X-00532Y00651
X-00556Y00636
Y0063
Y00624
X-005525Y00605
X-00565
X-00575
X-00529998Y00607001
X-00463Y0061
X-00495Y00545
X-00605
X-00662Y00609
X-00676
X-00444Y0061
X-0043
X-00423Y00604
X-00416Y0061
X-00403Y00624
Y0063
Y00636
X-004035Y00664
Y0067
Y00676
X-00409Y00696
X-00403501Y00712004
Y00718004
Y00724004
X-00378Y00722
X-0037
Y0073
X-00378
Y00738
X-0037
Y00746
X-00378
Y00754
X-0037
X-00362
X-00354
X-00346
X-00338
X-0033
X-00322
Y00746
Y00738
Y0073
Y00722
X-0033
Y0073
X-00338
Y00722
X-00346
Y0073
X-00354
Y00722
X-00362
Y0073
Y00738
Y00746
X-00354
X-00346
Y00738
X-00354
X-00338
X-0033
Y00746
X-00338
Y00762
X-0033
Y0077
X-00338
Y00778
X-0033
X-00322
Y0077
Y00762
X-00346
Y0077
X-00354
Y00762
X-00362
Y0077
Y00778
X-00354
X-00346
X-0037
X-00378
Y0077
X-0037
Y00762
X-00378
X-00405Y00755
X-00403501Y00776004
Y00782004
Y00788004
X-00416Y00802
X-00423Y008085
X-0043Y00802
X-00444
X-0045Y00815
Y00821
Y00827
X-00449999Y00853
Y00859
X-00424002Y00878999
Y00884999
Y00890999
X-00389Y009055
X-00383
Y009115
X-00389
Y009175
X-00383
Y009235
X-00389
Y009295
Y009355
X-00383
Y009295
X-00357Y0093
Y00924
Y00918
X-00373002Y00890999
Y00884999
Y00878999
X-00356Y00859
Y00853
Y00847
X-00368Y00829
X-00364Y00811
X-00355Y008125
X-003575Y008035
X-0037Y00805
X-00345Y0081
X-003325
X-003225Y008075
X-00304Y00815
X-00298Y00821
Y00827
Y00833
X-00298Y00847
Y00853
Y00859
X-00269Y00873
X-00262Y00877
X-00249999Y00859001
Y00853001
Y00847001
X-0025Y00827
Y00821
Y00815
X-00262Y00802
X-00276
X-0029
X-00296499Y00787995
Y00781995
Y00775995
X-00295Y00755
X-00296499Y00723995
Y00717995
Y00711995
X-00283Y00699
X-00269
X-00249999Y00712001
Y00718001
Y00724001
Y00744001
Y00750001
Y00756001
Y00776001
Y00782001
Y00788001
X-00231Y00801
X-00217
X-00198Y00808
X-00202Y00815
Y00821
Y00827
X-00201999Y00847001
Y00853001
Y00859001
X-00156001Y00850999
Y00844999
Y00838999
X-001525Y00805
X-00165
X-00175
X-00178Y00778
Y0077
Y00762
Y00754
Y00746
Y00738
Y0073
Y00722
X-0017
X-00162
Y0073
X-0017
Y00738
X-00162
Y00746
X-0017
Y00754
Y00762
X-00162
Y00754
X-00154
Y00762
X-00146
Y00754
Y00746
X-00154
Y00738
Y0073
X-00146
Y00738
X-00138
Y0073
Y00722
X-00146
X-00154
X-0013
X-00122
Y0073
X-0013
Y00738
X-00122
Y00746
X-0013
X-00138
Y00754
Y00762
Y0077
Y00778
X-00146
X-00154
Y0077
X-00146
X-00162
X-0017
Y00778
X-00162
X-0013
Y0077
X-00122
Y00778
Y00762
X-0013
Y00754
X-00122
X-00095Y00745
X-00097Y00716
Y0071
Y00704
X-00084Y0069
X-0007
X-00097Y00676
Y0067
Y00664
X-00097Y00636
Y0063
Y00624
X-00090999Y0061
X-00097Y00596
Y0059
Y00584
X-00122Y00578
X-0013
Y0057
X-00122
Y00562
X-0013
Y00554
X-00122
Y00546
X-0013
X-00138
X-00146
X-00154
X-00162
X-0017
X-00178
Y00554
Y00562
Y0057
Y00578
X-0017
Y0057
X-00162
Y00578
X-00154
Y0057
X-00146
Y00578
X-00138
Y0057
Y00562
Y00554
X-00146
X-00154
Y00562
X-00146
X-00162
X-0017
Y00554
X-00162
X-00205Y00545
X-00203Y00576
Y00582
Y00588
X-00198Y00608
X-00217Y00601
X-00231
X-0025Y00588
Y00582
Y00576
Y00556
Y0055
Y00544
X-00295Y00555
X-00296501Y00575999
Y00581999
Y00587999
X-0029Y00602
X-00276Y00609
X-00262
X-003225Y006075
X-003325Y0061
X-00345
X-00355Y006125
X-00364Y00611
X-0037Y00605
X-003575Y006035
X-00355Y00624
Y0063
Y00636
X-00344Y00664
Y0067
Y00676
X-003475Y00695
X-00335
X-00325
X-0037Y00694
X-00437Y0069
X-00456
X-0045Y00676
Y0067
Y00664
X-00456Y0065
X-0045Y00636
Y0063
Y00624
X-00449999Y00587997
Y00581997
Y00575997
Y00555997
Y00549997
Y00543997
X-00405Y00555
X-004035Y00576
Y00582
Y00588
X-00378Y00578
X-0037
X-00362
X-00354
X-00346
X-00338
X-0033
X-00322
Y0057
Y00562
Y00554
Y00546
X-0033
X-00338
Y00554
X-0033
Y00562
Y0057
X-00338
Y00562
X-00346
Y0057
X-00354
Y00562
Y00554
X-00346
Y00546
X-00354
X-00362
Y00554
Y00562
Y0057
X-0037
Y00562
X-00378
Y0057
Y00554
X-0037
Y00546
X-00378
X-00317Y00638
X-00238Y00691
X-00224
X-0021Y00698
X-00203999Y00712001
Y00718001
Y00724001
X-00205Y00745
X-00203999Y00776001
Y00782001
Y00788001
X-00119Y0081
X-0011
X-0012Y00821
X-00109Y00839
Y00845
Y00851
X-00113Y00869
X-00076Y00909
Y00918
X-00145Y00922
X-001935Y00917
X-00217Y00907
X-00225Y00907
X-0022Y0094
X-00205
X-00251Y0094025
X-00262Y00921
Y00915
Y00909
X-003Y00905
X-0031Y00918
Y00924
Y0093
X-00328Y0083
X-00403Y00827
Y00821
Y00833
Y00847
Y00853
Y00859
X-00450001Y00788004
Y00782004
Y00776004
X-0045Y00756
Y0075
Y00744
X-00450001Y00724004
Y00718004
Y00712004
X-001775Y006925
X-001675Y0069
X-00155
X-00145Y006875
X-00136Y00689
X-0013Y00695
X-001425Y006965
X-00145Y00676
Y0067
Y00664
X-00125Y0065
X-0012Y00643
X-00156Y00636487
Y00630487
Y00624487
X-001525Y00605
X-00165
X-00175
X-00129999Y0061
X-00063Y0061
X-00095Y00545
X-00077Y0073
X-00097Y00784
Y0079
Y00796
X-00063Y0081
X-0005Y0079
Y00784
X-0005Y00778
X-0005Y00756
Y0075
Y00744
Y00716
Y0071
Y00704
X-00056Y0069
X-0005Y00676
Y0067
Y00664
X-0005Y0065
X-00045Y00643
X-00049Y00636
Y0063
Y00624
Y00596
Y0059
Y00584
Y00556
Y0055
Y00544
X-00015Y00832
Y00891
X-00059Y00939
X-0005Y01002
X-000505Y01023
Y0103325
X-00053Y01065
X-00052Y01088
Y01103
Y01118
Y01133
Y01143
Y01153
X-00018Y01158
Y01144
X-00025Y01124
X-0002Y01048
X-00025Y01023
Y0101275
Y01002
Y0099075
Y01234
X-00006449Y01250301
Y01319301
X-00062Y01323
X-000805Y01308901
Y01298901
Y01288901
X-000945Y01326401
X-001045Y01326401
X-001145Y01326401
X-001245
X-001345
X-001445
X-001545
X-001695Y01308901
Y01298901
Y01288901
X-001875Y01277
X-00192Y01242
Y01223
Y01204
Y01185
X-00193Y01152
Y01143
Y01133
Y01123
Y011
Y01092
Y01083
Y01073
Y01063
X-001895Y01045
X-00221Y010455
X-00215Y0103
X-0022Y01023
X-0019375Y01007
X-001865Y00983
X-00178Y00971
X-00205Y0097
X-0022
X-00235Y0097
X-0024Y00985
X-00252Y0098
X-002665Y009765
X-00273Y00985
X-00285Y00964
X-00308Y00962
Y00956
Y0095
X-00292Y00941
X-002475Y009545
X-00309001Y00982
Y00988
Y00994
X-00309Y01014
Y0102
Y01026
X-00298Y010295
X-00285Y01008
X-003055Y010575
X-0032625Y0106
Y01044
X-0034Y01075
X-00349Y01068
X-00354Y01081
Y01089
Y01097
Y01105
Y01113
X-00363Y01117
X-00377Y01112
Y01106
X-00383
Y01112
Y011
X-00377
Y01094
Y01088
Y01082
X-00383
Y01088
Y01094
Y01076
Y0107
X-00377
Y01076
Y01064
X-00383
X-00404125Y01061
X-00410125
X-00416
X-00422
X-0042825
Y01073
X-00422
X-00416
X-00410125
X-00404125
Y01079
X-00410125
X-00416
X-0041625Y01085
X-0042225
X-0042825
X-00410125Y01085
X-00404125
Y01091
X-00410125
X-0041Y01102
X-00404
Y01108
X-0041
Y01114
X-00404
X-00416
Y01108
Y01102
X-00422
Y01108
X-0042825
Y0112
X-00422
X-00416
Y01126
X-0041625Y01132
X-0042225
X-0042825
X-00399Y01157
X-00391
X-00374516Y011485
X-00362Y01145
X-00366Y01195
X-00364Y01207
X-00374
X-0038
X-00386
X-00395
X-00401
X-00407
X-00416
X-00422
X-00428
X-00437
X-00443
X-00449
X-00455
X-00452Y01212
X-00446
X-0044
X-00443Y01217
X-00449
Y01223
Y0122925
Y01235
X-00443
X-00437
Y01229
Y01223
Y01217
X-00455
Y01235
Y01241
X-00449
X-00443
X-00437
X-00347Y01234
X-00341
X-00335
X-00329
X-00323
Y01228
Y01222
Y01216
X-00329
Y01222
Y01228
X-00335
Y01222
Y01216
X-00341
Y01222
Y01228
X-00347
Y01222
Y01216
Y0121
X-00341
Y01204
X-00347
X-00335
Y0121
X-00329
Y01204
X-00323
Y0121
X-00303
X-00297
Y01204
X-00303
Y01198
X-00297
Y01192
X-00303
Y01186
X-00297
Y0118
X-00303
Y01174
X-00297
X-00291
Y0118
Y01186
X-00285
Y0118
Y01174
X-00279
X-00273
Y0118
Y01186
X-00267
Y0118
Y01174
X-00261
Y0118
Y01186
X-00255
Y0118
Y01174
X-00249
Y0118
Y01186
Y01192
X-00255
X-00261
X-00267
X-00273
X-00279
X-00285
X-00291
Y01198
X-00285
Y01204
Y0121
X-00291
Y01204
Y01216
Y01222
Y01228
X-00285
Y01222
Y01216
X-00279
X-00273
Y01222
Y01228
X-00267
Y01222
Y01216
X-00261
Y01222
Y01228
X-00255
Y01222
Y01216
X-00249
Y01222
Y01228
Y01234
X-00255
X-00261
X-00267
X-00273
X-00279
X-00285
X-00291
X-00297
X-00303
Y01228
X-00297
Y01222
X-00303
Y01216
X-00297
X-00279Y01222
Y01228
Y0121
X-00273
X-00267
Y01204
X-00273
X-00279
Y01198
X-00273
X-00267
X-00261
X-00255
Y01204
Y0121
X-00261
Y01204
X-00249
Y0121
Y01198
Y01168
Y01162
X-00255
Y01168
X-00261
Y01162
X-00267
Y01168
X-00273
Y01162
X-00279
Y01168
X-00285
X-00291
Y01162
X-00285
Y01156
X-00291
X-00297
X-00303
Y01162
Y01168
X-00297
Y01162
X-00279Y01156
X-00273
X-00267
X-00261
X-00255
X-00249
X-00232Y01132
X-002275Y01098
X-00219Y01101
X-00246Y01107
X-00254Y01092
Y01084
Y01076
Y01068
X-00244
X-00241Y0105075
X-00224Y0107
X-002665Y010615
X-00313Y01092
X-00357Y01026
Y0102
Y01014
X-00357001Y00994
Y00988
Y00982
X-00357Y00962
Y00956
Y0095
X-00383Y009415
X-00389
X-00404125Y01055
X-00410125
Y01067
X-00416
X-00404125
X-00279Y0118
Y01186
X-00313Y012455
X-00233Y01277
X-00141Y01251
X-00125Y01251132
X-00117Y01251
X-00109
X-00121Y01226
X-00094
X-00065Y01212
X-00112Y01183
X-00122
X-001245Y011515
X-00147Y01152
X-00157
X-00166
Y01133
Y01123
Y01113
Y01098
Y01088
X-00157Y011055
X-001095Y01089
X-001195Y010785
X-00107Y01064
X-00097
X-00087
X-00078Y01073
Y01093
Y01103
Y01123
Y01133
X-00087Y01152
X-00098Y01123
X-0011
X-0009Y01092
X-00087Y01037
X-00077Y01041
X-00076Y01023
Y01013
X-00101
Y01023
X-00107Y01037
X-001265Y01023
Y0101225
X-00145Y0099
X-0016Y01
X-00173Y01023
X-00101Y009885
Y00978
X-00091Y00976
X-00101Y009525
X-00084Y00942
X-00076Y009495
X-001265Y0096025
X-00061Y01035
X-00462
Y01029
Y01023
Y01017
Y01011
Y01005
X-00468
X-00474
X-0048
X-00486
Y01011
X-0048
Y01017
X-00486
Y01023
X-0048
Y01029
X-00486
Y01035
X-0048
X-00474
Y01029
Y01023
X-00468
Y01029
Y01035
Y01041
X-00474
X-0048
X-00486
Y01049
X-0047975
X-0047375
Y01055
X-0046775
X-0046175
Y01049
X-0046775
Y01061
X-0046175
Y01067
X-0046775
X-0047375
Y01061
X-0047975
X-00486
Y01074
X-0047975
X-0047375
X-0046775
X-0046175
Y01081
X-0046775
Y01087
X-0046175
Y01093
X-0046775
X-0047375
Y01087
X-0047975
X-00486
X-0048575Y01099
X-0047975
X-0047375
X-0046775
X-0046175
Y01107
X-0046775
Y01113
X-0046175
Y01119
X-0046775
Y01125
X-0046175
Y01132
X-0046775
X-0047375
X-0047975
X-00486
Y01119
X-0047975
X-0047375
Y01125
Y01113
Y01107
X-0047975
X-00486
X-00498Y011175
X-00512Y01112
X-00518
Y01106
X-00512
Y011
X-00518
Y01094
X-00512
Y01088
X-00518
Y01082
X-00512
Y01076
X-00518
Y0107
X-00512
Y01064
X-00518
X-00539125Y01067
X-00545125
X-00551
Y01061
X-00545125
X-00539125
Y01055
X-00545125
X-00557Y01061
X-0056325
Y01073
X-00557
X-00551
X-00545125
Y01079
X-00551
X-0055125Y01085
X-0055725
X-0056325
X-00545125Y01085
X-00539125
Y01079
Y01073
Y01091
X-00545125
X-00545Y01102
X-00539
Y01108
Y01114
X-00545
Y01108
X-00551
X-00557
Y01102
X-00551
Y01114
Y0112
X-00557
X-0056325
Y01132
X-0055725
X-0055125
X-00551Y01126
X-0056325Y01108
X-0059675Y01107
Y01113
X-0060275
Y01107
X-0060875
Y01113
Y01119
Y01125
X-0060275
X-0059675
Y01119
X-0060275
X-0061475
X-00621
Y01107
X-0061475
Y01099
X-0060875
X-0060275
X-0059675
Y01093
X-0060275
Y01087
X-0059675
Y01081
X-0060275
X-0060875
Y01087
X-0061475
X-00621
X-0062075Y01099
X-0060875Y01093
Y01074
X-0061475
X-00621
Y01061
X-0061475
X-0060875
Y01067
X-0060275
Y01061
X-0059675
Y01067
Y01074
X-0060275
Y01055
Y01049
X-0059675
Y01055
X-0060875
Y01049
X-0061475
X-00621
Y01041
X-00615
X-00609
X-00603
X-00597
Y01035
Y01029
Y01023
X-00603
Y01029
Y01035
X-00609
Y01029
Y01023
X-00615
Y01029
Y01035
X-00621
Y01029
Y01023
Y01017
X-00615
Y01011
X-00621
Y01005
X-00615
X-00609
X-00603
Y01011
Y01017
X-00609
Y01011
X-00597
Y01017
Y01005
X-006Y00941
X-00594
X-00653Y009415
X-00659
X-00729Y00941
X-00735
X-00788Y009415
X-00794
X-00756Y01005
X-0075
Y01011
Y01017
X-00756
Y01011
Y01023
Y01029
Y01035
X-0075
Y01029
Y01023
X-00744
Y01029
Y01035
X-00738
Y01029
Y01023
X-00732
Y01029
Y01035
Y01041
X-00738
X-00744
X-0075
X-00756
Y01049
X-0074975
X-0074375
Y01055
Y01061
X-0074975
X-00756
Y01074
X-0074975
X-0074375
X-0073775
X-0073175
Y01081
X-0073775
X-0074375
Y01087
X-0074975
X-00756
X-0075575Y01099
X-0074975
X-0074375
X-0073775
X-0073175
Y01093
X-0073775
Y01087
X-0073175
X-0074375Y01093
Y01107
Y01113
X-0073775
X-0073175
Y01107
X-0073775
Y01119
X-0073175
Y01125
X-0073775
X-0074375
Y01119
X-0074975
X-00756
Y01107
X-0074975
Y01132
X-0074375
X-0073775
X-0073175
Y01139
X-0073775
X-0074375
Y01145
X-0074975
X-0074375Y01151
Y01157
X-0074975
X-0073775
X-0073175
Y01151
X-0073775
Y01145
X-0073175
X-00732Y01166
Y0117225
Y0117825
X-00738
X-00744
Y0117225
Y01166
X-0075Y0117825
X-00764Y01188
X-00771Y01195
X-00779Y01202
X-00785
X-00791
X-008
X-00806
X-00812
X-00821
X-00827
X-00833
X-00842Y01205
Y01211
Y01217
Y01223
Y01229
Y01235
X-00848
X-00851Y0124
X-00845
X-00839
X-00848Y01217
Y01211
Y01205
X-0083325Y01132
X-0082725
X-0082125
X-00821Y01126
Y0112
X-00827
X-0083325
Y01108
X-00827
Y01102
X-00821
Y01108
Y01114
X-00815
Y01108
X-00809
Y01114
Y01102
X-00815
X-00815125Y01091
X-00809125
Y01085
Y01079
Y01073
X-00815125
X-00821
X-00827
X-0083325
Y01085
X-0082725
X-0082125
X-00815125Y01085
Y01079
X-00821
Y01067
X-00815125
Y01061
X-00821
X-00827
X-0083325
X-00809125
Y01067
Y01055
X-00815125
X-00788Y01064
X-00782
Y0107
X-00788
Y01076
X-00782
Y01082
X-00788
Y01088
X-00782
Y01094
X-00788
Y011
X-00782
Y01106
X-00788
Y01112
X-00782
X-00768Y011175
X-00756Y01132
X-00767Y01145
X-00779516Y011485
X-00796Y01157
X-00804
X-00757Y01205
X-00751
Y01211
X-00757
Y01217
X-00751
X-00745
X-00739
Y01211
Y01205
X-00745
Y01211
Y01223
Y0122925
Y01235
X-00739
Y01241
X-00745
X-00751
X-00757
Y01235
Y0122925
Y01223
X-00751Y01235
X-00732
Y0122925
Y01223
Y01217
Y01211
Y01205
X-00725
Y01211
X-00719
Y01205
X-00713
Y01211
Y01217
X-00719
Y01223
Y0122925
Y01235
X-00713
Y01241
X-00719
X-00725
Y01235
X-00732Y01241
X-00707
Y01235
Y01229
Y01223
Y01217
Y01211
Y01205
X-00698Y01202
X-00692
X-00686
X-00677
X-00671
X-00665
X-00656
X-0065
X-00644
X-00636Y01195
X-00629Y01188
X-00615Y0117825
X-00609
Y0117225
Y01166
X-0060875Y01157
X-0061475
Y01145
X-0060875
Y01151
X-0060275
Y01145
X-0059675
Y01151
Y01157
X-0060275
X-00597Y01166
Y0117225
Y0117825
X-00603
X-00604Y01205
X-0061
Y01211
X-00604
Y01217
X-0061
Y01223
Y0122925
Y01235
X-00604
Y01241
X-0061
X-00616
X-00622
Y01235
Y0122925
Y01223
Y01217
X-00616
Y01211
Y01205
X-00622
Y01211
X-00597
Y01205
X-0059
Y01211
X-00584
Y01205
X-00578
Y01211
Y01217
X-00584
Y01223
Y0122925
Y01235
X-00578
Y01241
X-00584
X-0059
Y01235
X-00597
Y0122925
Y01223
Y01217
X-0059
X-00572
Y01223
Y01229
Y01235
Y01241
X-00597
X-00616Y01235
X-00572Y01211
Y01205
X-00563Y01202
X-00557
X-00551
X-00542
X-00536
X-0053
X-00521
X-00515
X-00509
X-00501Y01195
X-00494Y01188
X-00487Y01207
X-00481
X-00475
X-00469
X-00462
X-00459Y01212
X-00466
X-00472
X-00478
X-00484
X-0049
X-00487Y01217
Y01223
Y0122925
Y01235
X-00481
X-00475
Y0122925
Y01223
Y01217
X-00469
X-00462
Y01223
Y0122925
Y01235
Y01241
X-00469
X-00475
X-00481
X-00487
X-00469Y01235
X-00481Y01217
X-00474Y0117825
Y0117225
Y01166
X-0048Y01163
X-0047975Y01157
X-0047375
Y01151
Y01145
X-0047975
X-0046775
X-0046175
Y01151
X-0046775
Y01157
X-0046175
X-00462Y01166
Y0117225
Y0117825
X-00468
X-0046775Y01139
X-0046175
X-0047375
X-00497Y01145
X-00509516Y011485
X-00526Y01157
X-00534
X-0059675Y01139
X-0060275
X-0060875
Y01132
X-0061475
X-00621
X-0060275
X-0059675
X-00632Y01145
X-00644516Y011485
X-00661Y01157
X-00669
X-0068625Y01132
X-0069225
X-0069825
Y0112
X-00692
X-00686
Y01126
Y01114
Y01108
X-00692
Y01102
X-00686
X-0068Y01102
X-00674
Y01108
Y01114
X-0068
Y01108
X-00680125Y01091
X-00674125
Y01085
X-00680125
Y01079
X-00686
Y01073
X-00680125
X-00674125
Y01079
Y01067
X-00680125
X-00686
Y01061
X-00680125
X-00674125
Y01055
X-00680125
X-00692Y01061
X-0069825
Y01073
X-00692
X-0069225Y01085
X-0069825
X-0068625
X-0069825Y01108
X-00653Y01106
Y01112
X-00647
Y01106
Y011
X-00653
Y01094
X-00647
Y01088
X-00653
Y01082
X-00647
Y01076
X-00653
Y0107
X-00647
Y01064
X-00653
X-00633Y011175
X-0073175Y01067
X-0073775
Y01061
X-0073175
Y01055
X-0073775
Y01049
X-0073175
X-0074375Y01067
X-00744Y01017
X-00738
Y01011
X-00744
Y01005
X-00738
X-00732
Y01011
Y01017
X-00725Y01217
X-0047375Y01081
X-00462Y01041
X-00468Y01017
Y01011
X-00474
Y01017
X-00465Y00941
X-00459
X-00518Y009415
X-00524
X-00864Y00941
X-0087
X-00867Y01005
X-00873
X-00879
X-00885
X-00891
Y01011
X-00885
Y01017
X-00891
Y01023
X-00885
Y01029
X-00891
Y01035
X-00885
X-00879
Y01029
Y01023
X-00873
Y01029
Y01035
X-00867
Y01029
Y01023
Y01017
Y01011
X-00873
X-00879
Y01017
X-00873
Y01041
X-00879
X-00885
X-00891
Y01049
X-0088475
X-0087875
Y01055
X-0087275
X-0086675
Y01049
X-0087275
Y01061
X-0086675
Y01067
X-0087275
X-0087875
Y01061
X-0088475
X-00891
Y01074
X-0088475
X-0087875
X-0087275
X-0086675
Y01081
X-0087275
Y01087
X-0086675
Y01093
X-0087275
X-0087875
Y01087
X-0088475
X-00891
X-0089075Y01099
X-0088475
X-0087875
X-0087275
X-0086675
Y01107
X-0087275
Y01113
X-0086675
Y01119
X-0087275
Y01125
X-0086675
Y01132
X-0087275
X-0087875
X-0088475
X-00891
Y01119
X-0088475
X-0087875
Y01125
Y01113
Y01107
X-0088475
X-00891
X-0087875Y01081
X-00867Y01041
X-0086675Y01139
X-0087275
Y01145
X-0086675
Y01151
X-0087275
X-0087875
Y01145
X-0088475
X-0087875Y01139
Y01157
X-0088475
X-0087275
X-0086675
X-00867Y01166
Y0117225
Y0117825
X-00873
X-00879
X-00885
X-00879Y0117225
Y01166
X-0088Y01205
Y01211
X-00874
Y01205
X-00867
Y01211
Y01217
Y01223
Y0122925
Y01235
X-0086
X-00854
Y0122925
Y01223
Y01217
X-0086
Y01211
Y01205
X-00854
Y01211
X-00874Y01217
X-0088
Y01223
Y0122925
Y01235
X-00874
X-00877Y0124
X-00871
X-00864Y0124
X-00857Y0124
X-00883
X-00889
X-00886Y01235
X-00892
Y0122925
Y01223
Y01217
X-00886
Y01211
X-00892
Y01205
X-00886
T02
X-00276Y01327
X-00241
X-00206
T03
X-00423Y012625
Y013175
X-00465
X-00507
Y012625
X-00465
X-00643
X-00685
X-00727
Y013175
X-00685
X-00643
T04
X-008625Y000375
X-000375
X-0025Y0025
X-0065Y0025
X-008625Y008625
X-0065Y0065
X-0025Y0065
X-000375Y008625
X-000375Y01275
X-0036Y01275
X-008625Y01275
M30
